<svg width="460" height="460" viewBox="0 0 460 460" fill="none" xmlns="http://www.w3.org/2000/svg">
<circle cx="230" cy="230" r="230" fill="#FFD163"/>
<path d="M195.797 138.078C198.984 138.078 201.234 138.828 202.547 140.328C203.953 141.734 204.656 144.172 204.656 147.641C204.656 149.984 204.188 151.812 203.25 153.125L110.016 285.875H184.828V248.047C184.828 244.766 185.625 242.422 187.219 241.016C188.812 239.609 191.531 238.906 195.375 238.906C199.219 238.906 201.938 239.609 203.531 241.016C205.125 242.422 205.922 244.766 205.922 248.047V295.438C205.922 298.906 205.219 301.391 203.812 302.891C202.5 304.297 200.25 305 197.062 305H89.3438C86.1562 305 83.8594 304.297 82.4531 302.891C81.1406 301.391 80.4844 298.906 80.4844 295.438C80.4844 293.375 81.1406 291.359 82.4531 289.391L175.125 157.203H104.531V192.219C104.531 195.5 103.734 197.844 102.141 199.25C100.547 200.656 97.8281 201.359 93.9844 201.359C90.1406 201.359 87.4219 200.656 85.8281 199.25C84.2344 197.844 83.4375 195.5 83.4375 192.219V147.641C83.4375 144.172 84.0938 141.734 85.4062 140.328C86.8125 138.828 89.1094 138.078 92.2969 138.078H195.797ZM326.719 138.078C339.188 138.078 349.875 140.281 358.781 144.688C367.688 149.094 374.438 155.328 379.031 163.391C383.719 171.453 386.062 180.781 386.062 191.375C386.062 201.969 383.719 211.25 379.031 219.219C374.438 227.094 367.688 233.234 358.781 237.641C349.875 241.953 339.188 244.109 326.719 244.109H293.672V285.875H327.422C330.609 285.875 332.859 286.625 334.172 288.125C335.578 289.531 336.281 291.969 336.281 295.438C336.281 298.906 335.578 301.391 334.172 302.891C332.859 304.297 330.609 305 327.422 305H249.797C246.609 305 244.312 304.297 242.906 302.891C241.594 301.391 240.938 298.906 240.938 295.438C240.938 291.969 241.594 289.531 242.906 288.125C244.312 286.625 246.609 285.875 249.797 285.875H272.578V157.203H249.797C246.609 157.203 244.312 156.5 242.906 155.094C241.594 153.594 240.938 151.109 240.938 147.641C240.938 144.172 241.594 141.734 242.906 140.328C244.312 138.828 246.609 138.078 249.797 138.078H326.719ZM293.672 224.984H323.766C336.797 224.984 346.734 222.031 353.578 216.125C360.422 210.219 363.844 201.969 363.844 191.375C363.844 180.594 360.375 172.203 353.438 166.203C346.594 160.203 336.703 157.203 323.766 157.203H293.672V224.984Z" fill="black"/>
</svg>
