<?xml version="1.0" encoding="iso-8859-1"?>
<!-- Generator: Adobe Illustrator 19.0.0, SVG Export Plug-In . SVG Version: 6.00 Build 0)  -->
<svg version="1.1" id="Layer_1" xmlns="http://www.w3.org/2000/svg" xmlns:xlink="http://www.w3.org/1999/xlink" x="0px" y="0px"
	 viewBox="0 0 512.001 512.001" style="enable-background:new 0 0 512.001 512.001;" xml:space="preserve">
<path style="fill:#6398DE;" d="M118.098,374.302L78.713,131.398c-1.547-9.535-9.779-16.542-19.439-16.542h-0.197
	c-9.658,0-17.892,7.007-19.439,16.542L0.254,374.302c-0.924,5.699,0.7,11.516,4.441,15.914c3.742,4.397,9.224,6.929,14.998,6.929
	h78.966c5.772,0,11.256-2.534,14.998-6.929C117.398,385.82,119.022,380.001,118.098,374.302z"/>
<path style="fill:#D6E5F6;" d="M511.747,374.302l-39.385-242.905c-1.547-9.535-9.779-16.542-19.439-16.542H59.276
	c-5.772,0-11.256,2.535-14.998,6.93c-3.742,4.398-5.365,10.215-4.441,15.914l39.385,242.905c1.547,9.535,9.779,16.54,19.439,16.54
	h393.648c5.774,0,11.256-2.534,14.998-6.929C511.048,385.82,512.672,380.001,511.747,374.302z"/>
<path style="fill:#BCD6F2;" d="M511.747,374.302l-39.385-242.905c-1.547-9.535-9.779-16.542-19.439-16.542H253.319l45.77,282.289
	h193.22c5.774,0,11.256-2.534,14.998-6.929C511.048,385.82,512.672,380.001,511.747,374.302z"/>
<path style="fill:#8CB7E8;" d="M393.847,275.695H157.539c-10.875,0-19.692-8.818-19.692-19.692c0-10.877,8.817-19.692,19.692-19.692
	h236.308c10.875,0,19.692,8.816,19.692,19.692C413.539,266.877,404.722,275.695,393.847,275.695z"/>
<path style="fill:#6398DE;" d="M393.847,236.31H273.011l6.386,39.385h114.45c10.875,0,19.692-8.818,19.692-19.692
	C413.539,245.126,404.722,236.31,393.847,236.31z"/>
<g>
</g>
<g>
</g>
<g>
</g>
<g>
</g>
<g>
</g>
<g>
</g>
<g>
</g>
<g>
</g>
<g>
</g>
<g>
</g>
<g>
</g>
<g>
</g>
<g>
</g>
<g>
</g>
<g>
</g>
</svg>
